<svg xmlns="http://www.w3.org/2000/svg" xmlns:xlink="http://www.w3.org/1999/xlink" width="1920" zoomAndPan="magnify" viewBox="0 0 1440 551.249983" height="735" preserveAspectRatio="xMidYMid meet" version="1.0"><defs><clipPath id="54542c437f"><path d="M 11 2.023438 L 1439.019531 2.023438 L 1439.019531 548.777344 L 11 548.777344 Z M 11 2.023438 " clip-rule="nonzero"/></clipPath></defs><g clip-path="url(#54542c437f)"><path fill="#000000" d="M 895.925781 2.269531 C 888.359375 5.5 882.824219 7.761719 874.886719 11.179688 C 861.230469 16.996094 847.25 23.042969 833.59375 28.953125 C 819.890625 34.90625 806.507812 40.769531 794.007812 46.3125 C 782.839844 50.972656 762.722656 59.375 738.5 69.578125 C 714.277344 79.78125 686.042969 91.828125 658.589844 103.691406 C 653.238281 106 648.253906 108.21875 642.996094 110.523438 L 642.996094 118.695312 C 648.253906 116.386719 653.238281 114.171875 658.589844 111.863281 C 686.042969 100 714.324219 87.949219 738.5 77.75 C 762.722656 67.546875 782.839844 59.097656 794.007812 54.480469 C 806.507812 48.941406 819.890625 43.03125 833.59375 37.125 C 847.296875 31.167969 861.277344 25.167969 874.886719 19.351562 C 882.867188 15.933594 888.359375 13.671875 895.925781 10.441406 Z M 757.648438 3.285156 C 757.140625 3.285156 756.125 4.210938 754.328125 6.101562 C 751.003906 9.65625 746.390625 16.304688 744.589844 20.183594 C 737.023438 36.339844 743.160156 47.140625 749.390625 46.863281 C 759.21875 46.402344 761.570312 28.261719 760.371094 28.445312 C 758.527344 31.722656 755.386719 39.339844 749.4375 36.617188 C 747.820312 35.785156 746.945312 33.753906 746.667969 30.890625 C 746.160156 25.167969 749.066406 16.164062 756.957031 6.148438 C 757.601562 5.316406 758.109375 4.347656 758.0625 3.933594 C 758.0625 3.515625 757.925781 3.285156 757.648438 3.285156 Z M 940.863281 11.132812 C 940.355469 11.132812 939.34375 12.058594 937.542969 13.996094 C 934.222656 17.550781 929.605469 24.199219 927.808594 28.074219 C 920.242188 44.234375 926.378906 55.035156 932.605469 54.757812 C 942.433594 54.296875 944.785156 36.15625 943.585938 36.339844 C 941.742188 39.617188 938.605469 47.234375 932.652344 44.511719 C 931.039062 43.679688 930.160156 41.648438 929.882812 38.785156 C 929.421875 33.0625 932.28125 24.058594 940.171875 14.042969 C 940.820312 13.210938 941.324219 12.242188 941.28125 11.824219 C 941.28125 11.410156 941.140625 11.179688 940.863281 11.179688 Z M 684.566406 11.503906 L 681.335938 21.335938 C 690.195312 36.476562 697.160156 55.726562 694.714844 83.75 C 695.871094 77.5625 697.070312 77.054688 698.222656 60.574219 C 698.222656 41.648438 693.195312 27.246094 687.65625 16.257812 C 686.6875 14.320312 685.8125 13.074219 684.613281 11.410156 L 684.613281 11.503906 Z M 627.398438 15.980469 L 626.890625 15.980469 C 608.484375 17.320312 619.28125 61.035156 613.375 60.898438 C 613.003906 60.804688 611.621094 56.558594 610.328125 51.527344 C 605.113281 31.628906 598.5625 23.691406 593.164062 21.75 C 587.074219 19.628906 582.414062 25.027344 582.554688 29.644531 C 582.554688 36.15625 588.550781 38.648438 591.644531 38.648438 C 594.273438 38.832031 595.472656 37.722656 597.132812 39.15625 C 606.175781 46.957031 608.484375 63.4375 611.621094 73.363281 C 611.527344 73.964844 611.757812 76.59375 612.542969 77.519531 C 612.914062 77.933594 613.375 77.980469 614.019531 77.195312 C 619.972656 68.5625 617.109375 39.246094 620.617188 31.722656 C 622.648438 27.335938 626.984375 26.414062 631.738281 34.398438 C 632.289062 35.785156 632.9375 36.894531 633.167969 36.894531 C 634.320312 36.894531 637.226562 28.445312 637.226562 25.074219 C 637.226562 21.707031 633.582031 17.410156 630.90625 16.488281 C 629.753906 16.074219 628.554688 15.886719 627.398438 15.933594 Z M 1042.832031 24.382812 L 1042.371094 24.382812 C 1025.4375 25.628906 1035.355469 65.839844 1029.910156 65.699219 C 1029.589844 65.605469 1028.34375 61.730469 1027.097656 57.066406 C 1022.300781 38.738281 1016.300781 31.445312 1011.316406 29.691406 C 1005.734375 27.707031 1001.398438 32.691406 1001.582031 36.9375 C 1001.582031 42.941406 1007.121094 45.203125 1009.933594 45.203125 C 1012.378906 45.386719 1013.441406 44.371094 1015.007812 45.710938 C 1023.359375 52.914062 1025.4375 68.054688 1028.34375 77.148438 C 1028.25 77.703125 1028.480469 80.101562 1029.171875 80.933594 C 1029.496094 81.347656 1029.957031 81.347656 1030.511719 80.65625 C 1035.957031 72.714844 1033.371094 45.757812 1036.601562 38.832031 C 1038.492188 34.816406 1042.460938 33.9375 1046.84375 41.324219 C 1047.351562 42.570312 1047.953125 43.632812 1048.183594 43.632812 C 1049.242188 43.632812 1051.917969 35.878906 1051.917969 32.738281 C 1051.917969 29.597656 1048.597656 25.722656 1046.105469 24.84375 C 1045.046875 24.476562 1043.9375 24.289062 1042.875 24.335938 Z M 383.882812 46.679688 C 377.929688 49.3125 371.65625 51.988281 366.027344 54.527344 C 354.859375 59.191406 334.742188 67.59375 310.519531 77.792969 C 286.296875 87.996094 258.015625 100.046875 230.609375 111.910156 C 225.257812 114.21875 220.273438 116.433594 215.015625 118.742188 L 215.015625 126.914062 C 220.273438 124.605469 225.257812 122.390625 230.609375 120.082031 C 258.0625 108.21875 286.34375 96.167969 310.519531 85.964844 C 334.742188 75.761719 354.859375 67.316406 366.027344 62.699219 C 371.65625 60.207031 377.929688 57.480469 383.882812 54.851562 Z M 451.84375 49.910156 L 440.308594 73.039062 C 441.183594 73.824219 443.308594 76.179688 446.121094 79.363281 C 446.261719 80.289062 446.859375 84.902344 447.644531 91.183594 C 451.472656 123.3125 457.886719 154.980469 463.285156 186.835938 C 464.714844 195.328125 466.191406 204.46875 467.4375 212.917969 C 468.683594 221.363281 469.699219 229.121094 470.207031 234.84375 C 470.34375 236.230469 470.34375 237.613281 470.207031 238.90625 C 470.113281 240.246094 469.929688 241.539062 469.605469 242.785156 C 469.328125 244.03125 468.914062 245.277344 468.40625 246.476562 C 467.898438 247.679688 467.347656 248.832031 466.652344 249.988281 C 465.316406 252.25 463.65625 254.417969 461.625 256.496094 C 453.457031 264.898438 440.355469 271.40625 426.144531 276.484375 C 422.453125 277.824219 418.667969 279.070312 414.792969 280.222656 C 408.703125 282.070312 402.984375 283.871094 397.539062 285.71875 C 392.09375 287.566406 387.019531 289.410156 382.128906 291.394531 C 377.238281 293.382812 372.625 295.503906 368.195312 297.859375 C 363.765625 300.214844 359.519531 302.753906 355.414062 305.613281 C 351.953125 308.015625 348.769531 310.554688 345.910156 313.09375 C 343.003906 315.632812 340.328125 318.21875 337.835938 320.800781 C 332.851562 325.972656 328.5625 331.144531 324.316406 336.035156 C 322.195312 338.484375 320.117188 340.792969 317.949219 343.054688 C 315.78125 345.269531 313.566406 347.394531 311.214844 349.332031 C 308.859375 351.269531 306.367188 353.023438 303.648438 354.59375 C 300.925781 356.164062 298.019531 357.503906 294.835938 358.65625 C 293.082031 359.257812 291.375 359.71875 289.667969 360.042969 C 288.003906 360.367188 286.34375 360.550781 284.777344 360.597656 C 283.160156 360.597656 281.636719 360.597656 280.160156 360.320312 C 278.6875 360.042969 277.210938 359.71875 275.871094 359.210938 C 274.488281 358.703125 273.148438 358.101562 271.902344 357.363281 C 270.65625 356.625 269.457031 355.75 268.304688 354.78125 C 267.195312 353.808594 266.136719 352.703125 265.167969 351.457031 C 264.199219 350.253906 263.277344 348.917969 262.445312 347.4375 C 261.613281 346.007812 260.875 344.4375 260.230469 342.777344 C 259.585938 341.113281 259.03125 339.359375 258.523438 337.515625 C 258.0625 335.667969 257.648438 333.683594 257.371094 331.652344 C 257.09375 329.574219 256.910156 327.449219 256.816406 325.1875 C 256.722656 322.925781 256.816406 320.617188 256.910156 318.21875 C 257.691406 303.539062 262.304688 287.703125 270.519531 269.699219 C 269.089844 269.882812 267.980469 270.667969 267.011719 271.867188 C 264.75 274.59375 252.800781 298.273438 251.972656 324.449219 C 251.832031 328.234375 251.972656 331.835938 252.339844 335.253906 C 252.664062 338.667969 253.21875 341.855469 253.957031 344.855469 C 254.695312 347.855469 255.617188 350.671875 256.675781 353.257812 C 257.738281 355.839844 258.984375 358.289062 260.324219 360.503906 C 262.492188 363.550781 264.613281 366.273438 266.734375 368.628906 C 268.859375 370.984375 270.933594 373.015625 273.011719 374.722656 C 275.085938 376.429688 277.117188 377.816406 279.148438 378.96875 C 281.175781 380.078125 283.207031 380.910156 285.191406 381.507812 C 287.175781 382.0625 289.160156 382.386719 291.097656 382.476562 C 293.035156 382.570312 294.972656 382.476562 296.910156 382.0625 C 298.800781 381.738281 300.695312 381.183594 302.585938 380.445312 C 304.476562 379.707031 306.324219 378.832031 308.121094 377.769531 C 309.96875 376.707031 311.765625 375.507812 313.566406 374.214844 C 315.367188 372.875 317.117188 371.445312 318.871094 369.921875 C 322.378906 366.875 325.746094 363.414062 329.070312 359.8125 C 335.667969 352.5625 341.941406 344.714844 347.847656 337.882812 C 349.691406 335.804688 351.675781 333.730469 353.9375 331.742188 C 356.199219 329.710938 358.78125 327.726562 361.734375 325.695312 C 364.734375 323.710938 368.148438 321.679688 372.160156 319.648438 C 376.175781 317.617188 380.742188 315.539062 386.097656 313.417969 C 391.03125 311.476562 396.109375 309.769531 401.230469 308.109375 C 406.398438 306.492188 411.609375 304.96875 416.777344 303.304688 C 421.992188 301.691406 427.160156 299.984375 432.1875 298.042969 C 434.726562 297.074219 437.125 295.828125 439.664062 294.90625 C 444.09375 293.289062 447.921875 291.257812 451.242188 288.949219 C 449.675781 293.796875 448.476562 299.707031 447.96875 306.167969 C 443.953125 357.363281 484.832031 414.886719 566.449219 370.199219 C 570.511719 367.980469 574.710938 365.488281 578.910156 362.90625 C 583.105469 360.320312 587.304688 357.550781 591.367188 354.6875 C 595.425781 351.824219 599.394531 348.917969 603.132812 345.960938 C 606.867188 343.007812 610.375 340.007812 613.511719 337.050781 C 616.648438 334.097656 619.511719 331.191406 621.863281 328.375 C 623.0625 326.941406 624.125 325.605469 625.046875 324.21875 C 630.074219 316.648438 632.753906 302.566406 634.042969 291.351562 C 634.828125 284.519531 635.152344 278.746094 635.199219 276.160156 C 635.199219 274.730469 635.796875 273.992188 636.027344 273.992188 C 636.488281 273.992188 639.027344 274.683594 641.703125 275.515625 C 643.316406 276.023438 644.933594 276.394531 646.546875 276.625 C 648.164062 276.855469 649.824219 276.992188 651.4375 276.992188 C 664.035156 277.222656 673.167969 267.019531 679.398438 257.050781 C 681.75 253.171875 683.734375 250.171875 683.734375 250.402344 C 683.734375 252.0625 685.582031 260.511719 686.503906 263.328125 C 687.242188 265.496094 688.535156 268.222656 690.011719 270.851562 C 690.75 272.097656 691.484375 273.347656 692.269531 274.453125 C 688.257812 281.792969 679.582031 302.152344 678.890625 324.355469 C 678.753906 328.144531 678.890625 331.742188 679.257812 335.160156 C 679.628906 338.574219 680.183594 341.761719 680.921875 344.761719 C 681.660156 347.761719 682.582031 350.578125 683.644531 353.164062 C 684.703125 355.75 685.949219 358.195312 687.289062 360.410156 C 689.457031 363.457031 691.578125 366.183594 693.699219 368.535156 C 695.824219 370.890625 697.898438 372.921875 699.976562 374.628906 C 702.050781 376.339844 704.082031 377.722656 706.113281 378.878906 C 708.140625 379.984375 710.171875 380.816406 712.15625 381.417969 C 714.140625 381.96875 716.125 382.292969 718.0625 382.386719 C 720 382.476562 721.9375 382.386719 723.875 381.96875 C 725.765625 381.648438 727.660156 381.09375 729.550781 380.355469 C 731.441406 379.617188 733.289062 378.738281 735.085938 377.675781 C 736.933594 376.613281 738.730469 375.414062 740.53125 374.121094 C 742.332031 372.785156 744.085938 371.351562 745.835938 369.828125 C 749.34375 366.78125 752.710938 363.320312 756.035156 359.71875 C 762.632812 352.472656 768.90625 344.625 774.8125 337.789062 C 776.65625 335.714844 778.640625 333.683594 780.902344 331.652344 C 783.164062 329.621094 785.699219 327.636719 788.699219 325.605469 C 791.699219 323.617188 795.113281 321.585938 799.128906 319.554688 C 803.140625 317.523438 807.710938 315.449219 813.0625 313.324219 C 818 311.386719 823.074219 309.675781 828.195312 308.015625 C 833.363281 306.398438 838.574219 304.875 843.742188 303.214844 C 848.957031 301.597656 854.125 299.890625 859.152344 297.953125 C 861.691406 296.980469 864.089844 295.734375 866.628906 294.8125 C 886.238281 287.75 893.851562 272.5625 898.464844 260.234375 C 899.617188 257.140625 900.679688 253.957031 901.601562 250.773438 C 903.214844 245.277344 904.460938 239.691406 905.429688 234.429688 C 906.398438 229.167969 907.089844 224.226562 907.507812 220.027344 C 907.828125 216.839844 907.96875 213.515625 907.96875 209.917969 C 911.058594 210.101562 913.828125 210.332031 915.8125 210.515625 L 921.808594 211.164062 L 922.824219 208.808594 C 923.378906 207.515625 925.410156 202.53125 927.253906 197.683594 C 928.359375 194.820312 929.238281 192.652344 929.652344 190.988281 C 929.882812 190.15625 929.976562 189.464844 929.929688 188.910156 C 929.882812 188.3125 929.699219 187.851562 929.375 187.480469 C 929.054688 187.066406 928.546875 186.789062 927.855469 186.511719 C 927.160156 186.234375 926.285156 186.050781 925.175781 185.910156 C 923.007812 185.585938 919.964844 185.355469 915.902344 185.125 C 912.535156 184.894531 909.167969 184.617188 905.84375 184.25 C 902.847656 163.613281 896.664062 136.515625 890.480469 97.230469 C 895.511719 102.769531 900.539062 108.078125 904.460938 111.769531 C 907.554688 114.355469 909.074219 114.863281 909.535156 113.988281 C 912.675781 108.171875 881.945312 52.957031 880.238281 49.863281 L 868.703125 72.992188 C 869.394531 73.59375 870.917969 75.300781 872.949219 77.5625 C 872.855469 77.933594 872.855469 78.257812 872.855469 78.394531 C 872.902344 78.625 873.640625 84.394531 874.519531 91.136719 C 878.164062 121.695312 884.160156 151.839844 889.375 182.171875 C 889.097656 182.171875 888.867188 182.078125 888.589844 182.078125 C 879.640625 180.695312 870.78125 178.894531 862.015625 176.863281 C 854.632812 175.15625 847.34375 173.214844 840.050781 171.183594 C 832.761719 169.105469 825.519531 166.890625 818.320312 164.582031 C 803.878906 159.964844 789.484375 154.933594 774.949219 149.902344 C 772.320312 148.980469 769.738281 148.195312 767.152344 147.503906 C 764.570312 146.808594 762.03125 146.300781 759.585938 145.980469 C 757.09375 145.65625 754.742188 145.515625 752.433594 145.65625 C 750.128906 145.75 747.960938 146.117188 745.929688 146.808594 C 744.914062 147.132812 743.945312 147.546875 742.976562 148.011719 C 742.054688 148.519531 741.132812 149.070312 740.300781 149.71875 C 739.425781 150.363281 738.640625 151.101562 737.855469 151.933594 C 737.117188 152.765625 736.378906 153.6875 735.734375 154.703125 C 735.085938 155.71875 734.488281 156.875 733.933594 158.074219 C 733.378906 159.320312 732.917969 160.660156 732.457031 162.089844 C 732.042969 163.519531 731.671875 165.089844 731.394531 166.800781 C 731.121094 168.460938 730.886719 170.261719 730.703125 172.199219 L 743.667969 172.660156 C 747.820312 172.800781 751.375 172.984375 754.605469 173.308594 C 757.832031 173.585938 760.695312 173.953125 763.371094 174.507812 C 766.046875 175.015625 768.582031 175.664062 771.121094 176.445312 C 773.660156 177.230469 776.242188 178.203125 779.011719 179.402344 C 783.71875 181.386719 790.085938 183.695312 796.773438 185.957031 C 803.464844 188.21875 810.476562 190.390625 816.476562 192.050781 C 820.441406 193.160156 824.179688 194.21875 824.78125 194.40625 C 825.011719 194.496094 824.964844 194.636719 824.78125 194.914062 C 824.59375 195.191406 824.179688 195.558594 823.625 195.976562 C 822.472656 196.851562 820.628906 198.050781 818.183594 199.484375 C 815.738281 200.914062 812.738281 202.574219 809.324219 204.332031 C 805.863281 206.128906 801.988281 208.023438 797.835938 210.007812 C 793.636719 211.992188 789.160156 213.980469 784.546875 215.917969 C 779.886719 217.855469 775.089844 219.75 770.246094 221.503906 C 765.398438 223.257812 760.554688 224.875 755.804688 226.210938 C 751.050781 227.597656 746.390625 228.566406 742.007812 229.488281 C 721.890625 233.78125 708.648438 228.289062 699.191406 221.828125 C 696.285156 219.839844 693.746094 217.765625 691.484375 215.871094 C 690.65625 215.179688 689.777344 215.269531 689.640625 215.410156 C 689.503906 215.59375 686.917969 219.472656 683.964844 224.089844 C 679.8125 230.550781 677.136719 234.613281 674.832031 237.613281 C 668.464844 246.015625 661.910156 250.21875 655.867188 252.0625 C 643.363281 255.847656 633.121094 249.480469 631.875 248.648438 C 631.277344 248.230469 630.769531 247.863281 630.214844 247.308594 C 629.707031 246.753906 629.152344 245.96875 628.414062 244.816406 C 626.984375 242.460938 624.910156 238.398438 621.03125 230.78125 C 620.292969 229.304688 619.648438 228.152344 619.09375 227.320312 C 618.542969 226.488281 618.078125 226.027344 617.617188 225.84375 C 617.203125 225.65625 616.789062 225.84375 616.464844 226.257812 C 616.097656 226.71875 615.726562 227.457031 615.359375 228.472656 C 614.574219 230.691406 613.558594 234.382812 612.773438 237.800781 C 611.988281 241.214844 611.390625 244.402344 611.390625 245.691406 C 611.390625 246.984375 611.898438 248.140625 612.726562 250.496094 C 613.605469 252.800781 614.851562 255.757812 616.371094 259.035156 C 618.125 262.773438 619.554688 266.050781 620.800781 269.007812 C 622 271.960938 623.015625 274.59375 623.753906 277.039062 C 624.539062 279.484375 625.09375 281.703125 625.507812 283.871094 C 625.921875 286.039062 626.199219 288.117188 626.339844 290.289062 C 627.167969 296.242188 627.125 296.890625 623.664062 301.273438 C 622.324219 302.9375 620.523438 304.921875 618.21875 307.136719 C 615.957031 309.355469 613.234375 311.753906 610.191406 314.339844 C 607.097656 316.925781 603.683594 319.601562 599.992188 322.371094 C 596.300781 325.140625 592.289062 327.957031 588.089844 330.726562 C 583.890625 333.496094 579.507812 336.265625 574.988281 338.898438 C 492.304688 387.09375 463.101562 338.992188 459.039062 330.449219 C 456.964844 326.066406 455.535156 321.496094 454.65625 316.972656 C 452.257812 305.058594 453.367188 293.519531 454.472656 286.410156 C 463.65625 278.746094 468.3125 268.777344 471.542969 260.1875 C 472.699219 257.097656 473.757812 253.910156 474.679688 250.726562 C 476.296875 245.230469 477.542969 239.644531 478.511719 234.382812 C 479.480469 229.121094 480.171875 224.179688 480.585938 219.980469 C 480.957031 215.917969 481.140625 211.578125 481.003906 206.777344 C 480.863281 201.976562 480.496094 196.757812 479.804688 190.898438 C 477.359375 169.84375 470.621094 141.730469 463.886719 99.214844 C 468.269531 104.015625 472.558594 108.492188 476.019531 111.726562 C 479.109375 114.308594 480.632812 114.816406 481.09375 113.941406 C 483.449219 109.554688 466.652344 77.195312 457.425781 60.113281 C 457.101562 59.28125 456.824219 58.636719 456.503906 58.222656 C 456.503906 58.175781 456.410156 58.128906 456.320312 58.082031 C 453.875 53.605469 452.167969 50.464844 451.796875 49.820312 L 451.796875 49.910156 Z M 520.449219 49.910156 L 508.917969 73.039062 C 509.5625 73.59375 510.855469 75.023438 512.609375 76.964844 C 512.609375 77.054688 512.609375 77.148438 512.609375 77.242188 C 512.515625 77.980469 512.609375 79.503906 512.792969 81.394531 C 513.023438 83.242188 513.347656 85.457031 513.808594 87.582031 C 515.328125 94.875 517.914062 110.292969 520.496094 126.496094 C 523.035156 142.703125 525.527344 159.78125 526.816406 170.308594 C 528.25 182.171875 532.261719 210.195312 534.152344 221.78125 C 537.199219 240.523438 539.183594 253.773438 540.429688 263.976562 C 541.027344 269.097656 541.488281 273.4375 541.765625 277.316406 C 542.042969 281.195312 542.136719 284.609375 542.136719 287.886719 C 542.136719 293.289062 541.722656 299.429688 541.074219 305.335938 C 540.753906 308.292969 540.335938 311.246094 539.875 313.96875 C 539.414062 316.742188 538.859375 319.28125 538.308594 321.585938 C 537.476562 324.910156 536.832031 327.726562 536.832031 327.867188 C 536.832031 328.003906 537.152344 328.144531 537.570312 328.144531 C 537.984375 328.144531 538.074219 328.003906 538.398438 327.679688 C 538.675781 327.359375 539 326.851562 539.367188 326.066406 C 540.105469 324.496094 541.074219 321.863281 542.550781 317.664062 C 544.90625 310.832031 546.933594 304.367188 548.550781 298.273438 C 550.164062 292.179688 551.410156 286.410156 552.332031 280.917969 C 553.253906 275.378906 553.808594 270.066406 553.992188 264.898438 C 554.222656 259.726562 554.085938 254.695312 553.671875 249.664062 C 553.164062 243.984375 552.746094 239.644531 551.917969 233.644531 C 551.085938 227.597656 549.886719 219.839844 547.855469 207.238281 C 543.289062 178.988281 541.488281 167.074219 540.707031 160.796875 C 539.320312 149.578125 534.9375 119.757812 533.878906 114.171875 C 533.460938 112.046875 532.355469 105.492188 531.015625 97.320312 C 536 102.816406 540.984375 108.078125 544.90625 111.726562 C 547.996094 114.308594 549.519531 114.816406 549.980469 113.941406 C 553.117188 108.125 522.390625 52.867188 520.683594 49.820312 L 520.496094 49.910156 Z M 1151.394531 55.175781 C 1143.550781 58.589844 1135.570312 62.050781 1128.1875 65.332031 C 1115.820312 70.824219 1104.195312 75.996094 1093.953125 80.75 C 1083.664062 85.457031 1074.710938 89.703125 1067.605469 93.257812 C 1064.054688 95.015625 1061.007812 96.628906 1058.472656 98.015625 C 1055.933594 99.398438 1053.949219 100.601562 1052.566406 101.523438 L 1052.566406 109.695312 C 1053.949219 108.722656 1055.933594 107.570312 1058.472656 106.1875 C 1061.007812 104.800781 1064.054688 103.183594 1067.605469 101.429688 C 1074.710938 97.875 1083.664062 93.628906 1093.953125 88.921875 C 1104.242188 84.210938 1115.820312 78.996094 1128.1875 73.5 C 1135.570312 70.222656 1143.597656 66.761719 1151.394531 63.34375 Z M 1239.011719 60.4375 L 1227.476562 83.566406 C 1227.984375 84.027344 1228.90625 84.996094 1230.152344 86.382812 C 1230.335938 89.429688 1231.167969 96.214844 1232.507812 105.816406 C 1233.980469 116.527344 1236.058594 130.699219 1238.457031 146.902344 C 1240.8125 163.105469 1243.441406 181.292969 1246.070312 200.082031 C 1248.699219 218.871094 1251.238281 238.214844 1253.5 256.726562 C 1254.097656 265.773438 1255.160156 275.238281 1256.3125 284.933594 C 1257.46875 294.628906 1258.667969 304.554688 1259.542969 314.476562 C 1259.957031 319.464844 1260.328125 324.402344 1260.558594 329.34375 C 1260.789062 334.28125 1260.835938 339.222656 1260.695312 344.070312 C 1260.558594 348.917969 1260.28125 353.765625 1259.726562 358.472656 C 1259.175781 363.179688 1258.390625 367.84375 1257.28125 372.414062 C 1257.050781 373.152344 1257.097656 373.800781 1257.328125 374.121094 C 1257.421875 374.261719 1257.558594 374.351562 1257.699219 374.351562 C 1257.835938 374.351562 1257.972656 374.214844 1258.113281 373.9375 C 1259.3125 371.492188 1260.375 368.953125 1261.386719 366.367188 C 1262.359375 363.78125 1263.28125 361.105469 1264.066406 358.378906 C 1264.847656 355.65625 1265.585938 352.886719 1266.1875 350.070312 C 1266.832031 347.253906 1267.339844 344.390625 1267.847656 341.53125 C 1268.769531 335.804688 1269.417969 329.390625 1269.832031 322.417969 C 1270.203125 315.449219 1270.386719 307.921875 1270.292969 300.027344 C 1270.203125 292.132812 1269.925781 283.824219 1269.464844 275.238281 C 1269 266.699219 1268.402344 257.882812 1267.664062 248.972656 C 1266.925781 240.0625 1266.050781 231.058594 1265.078125 222.148438 C 1264.109375 213.195312 1263.097656 204.332031 1261.988281 195.652344 C 1259.820312 178.292969 1257.511719 161.8125 1255.34375 147.363281 C 1253.316406 133.652344 1251.238281 120.402344 1249.164062 107.523438 C 1254.285156 113.15625 1259.40625 118.605469 1263.417969 122.34375 C 1266.511719 124.929688 1268.03125 125.4375 1268.496094 124.558594 C 1271.125 119.710938 1250.269531 80.65625 1242.242188 65.929688 C 1242.011719 65.285156 1241.6875 64.730469 1241.363281 64.222656 C 1241.320312 64.175781 1241.273438 64.128906 1241.226562 64.082031 C 1240.164062 62.144531 1239.425781 60.851562 1239.195312 60.4375 Z M 961.121094 60.4375 L 949.585938 83.566406 C 950.09375 84.027344 951.015625 84.996094 952.261719 86.382812 C 952.445312 89.429688 953.277344 96.214844 954.613281 105.816406 C 956.089844 116.527344 958.167969 130.699219 960.566406 146.902344 C 962.917969 163.105469 965.546875 181.292969 968.179688 200.082031 C 970.808594 218.871094 973.347656 238.214844 975.605469 256.726562 C 976.207031 265.773438 977.269531 275.238281 978.421875 284.933594 C 979.4375 293.425781 980.453125 302.105469 981.28125 310.785156 C 974.683594 312.910156 954.890625 316.371094 948.800781 283.410156 C 944.277344 258.898438 951.613281 222.75 948.570312 218.6875 C 947.277344 225.105469 946.078125 231.9375 945.109375 239.09375 C 943.125 254.09375 942.386719 270.808594 944.925781 289.410156 C 948.847656 318.21875 965.964844 336.453125 982.667969 330.589844 C 982.851562 335.113281 982.898438 339.589844 982.757812 344.023438 C 982.621094 348.871094 982.34375 353.71875 981.789062 358.425781 C 981.234375 363.136719 980.453125 367.796875 979.34375 372.367188 C 979.113281 373.105469 979.160156 373.753906 979.390625 374.074219 C 979.484375 374.214844 979.621094 374.308594 979.757812 374.308594 C 979.898438 374.308594 980.035156 374.167969 980.175781 373.890625 C 981.375 371.445312 982.433594 368.90625 983.449219 366.320312 C 984.417969 363.734375 985.34375 361.058594 986.125 358.335938 C 986.910156 355.609375 987.648438 352.839844 988.25 350.023438 C 988.894531 347.207031 989.402344 344.347656 989.910156 341.484375 C 990.742188 336.5 991.292969 330.914062 991.710938 324.957031 C 995.402344 321.496094 998.953125 316.695312 1002.183594 310.277344 C 1013.996094 286.824219 1018.792969 238.628906 1031.574219 218.824219 C 1032.679688 217.71875 1034.25 213.933594 1034.480469 217.441406 C 1034.527344 251.648438 1020.039062 286.503906 1039.1875 317.941406 C 1058.011719 345.824219 1100.917969 347.902344 1120.621094 305.9375 C 1126.988281 292.367188 1130.402344 277.132812 1130.402344 264.851562 C 1130.402344 252.570312 1132.109375 271.128906 1132.246094 271.222656 C 1132.386719 271.316406 1132.476562 271.824219 1132.664062 272.699219 C 1136.675781 292.734375 1142.488281 301.136719 1149.085938 309.261719 C 1166.851562 331.28125 1192.597656 330.035156 1207.546875 314.339844 C 1214.417969 307.136719 1217.050781 296.84375 1219.035156 284.332031 C 1220.601562 274.5 1220.234375 263.375 1217.234375 251.234375 C 1214.375 239.601562 1207.777344 228.011719 1201.730469 217.996094 C 1196.054688 208.484375 1185.8125 191.035156 1185.8125 185.449219 L 1208.421875 189.140625 C 1207.546875 188.589844 1205.421875 186.789062 1202.609375 184.25 C 1192.550781 175.339844 1172.570312 154.335938 1170.957031 156.828125 C 1170.125 158.121094 1168.695312 161.535156 1167.359375 165.320312 C 1165.234375 171.183594 1163.160156 177.832031 1163.621094 178.15625 C 1166.019531 179.769531 1169.15625 182.078125 1169.804688 185.910156 C 1173.585938 208.671875 1189.828125 233 1201.222656 254.789062 C 1202.332031 256.957031 1216.449219 284.285156 1211.328125 289.273438 C 1198.039062 302.246094 1181.339844 301.507812 1170.910156 296.660156 C 1158.175781 290.75 1148.71875 274.683594 1145.257812 256.21875 C 1143.597656 247.308594 1142.027344 237.382812 1140.042969 226.535156 C 1134.601562 196.992188 1123.988281 165.460938 1119.144531 157.75 L 1108.070312 179.171875 C 1108.023438 179.585938 1108.023438 180.003906 1108.070312 180.371094 C 1108.117188 180.832031 1108.253906 181.292969 1108.4375 181.847656 C 1108.625 182.402344 1108.902344 183.003906 1109.269531 183.789062 C 1109.824219 184.941406 1110.378906 186.328125 1110.929688 187.804688 C 1111.484375 189.328125 1112.085938 190.941406 1112.636719 192.695312 C 1116.28125 203.777344 1123.386719 233.230469 1125.695312 247.632812 C 1132.707031 291.441406 1094.96875 313.140625 1072.3125 311.429688 C 1050.765625 309.769531 1031.941406 290.566406 1040.847656 242.324219 C 1047.675781 203.453125 1047.492188 186.234375 1046.152344 185.3125 C 1044.769531 184.296875 1041.675781 185.679688 1035.171875 191.679688 C 1022.53125 205.300781 1013.070312 241.585938 1011.179688 251.371094 C 1006.242188 276.945312 999.785156 293.425781 992.402344 302.523438 L 992.402344 299.84375 C 992.355469 291.949219 992.03125 283.640625 991.570312 275.054688 C 991.109375 266.511719 990.507812 257.695312 989.769531 248.785156 C 989.03125 239.875 988.15625 230.875 987.1875 221.964844 C 986.21875 213.007812 985.203125 204.144531 984.097656 195.46875 C 981.929688 178.109375 979.621094 161.628906 977.453125 147.179688 C 975.421875 133.46875 973.347656 120.21875 971.269531 107.339844 C 976.390625 112.972656 981.511719 118.417969 985.527344 122.160156 C 988.617188 124.742188 990.140625 125.25 990.601562 124.375 C 993.230469 119.527344 972.378906 80.472656 964.347656 65.746094 C 964.117188 65.097656 963.796875 64.546875 963.472656 64.039062 C 963.425781 63.992188 963.378906 63.945312 963.335938 63.898438 C 962.273438 61.960938 961.535156 60.667969 961.304688 60.253906 Z M 1181.199219 73.640625 C 1180.738281 73.777344 1180.230469 74.609375 1179.445312 75.53125 C 1174.417969 81.347656 1169.433594 87.164062 1166.710938 94.273438 C 1159.285156 115.1875 1185.628906 116.804688 1192.503906 104.429688 C 1200.300781 90.351562 1183 79.6875 1183 79.273438 C 1182.03125 77.011719 1181.429688 73.59375 1181.152344 73.6875 L 1181.199219 73.6875 Z M 1178.339844 86.242188 L 1178.523438 86.242188 C 1183.046875 86.613281 1189.964844 97.230469 1189.320312 99.445312 C 1188.949219 100.691406 1187.429688 101.570312 1184.335938 102.585938 C 1178.753906 104.386719 1173.773438 103.554688 1171.789062 101.707031 C 1169.019531 99.167969 1170.171875 96.261719 1172.15625 92.9375 C 1173.957031 89.890625 1176.355469 86.335938 1178.339844 86.289062 Z M 816.984375 89.519531 C 811.355469 89.519531 808.863281 90.167969 805.402344 92.058594 C 803.695312 93.027344 801.664062 94.367188 800.972656 95.058594 C 800.234375 95.753906 799.265625 96.722656 798.757812 97.183594 C 798.25 97.644531 797.375 99.351562 796.773438 100.96875 C 796.175781 102.585938 795.480469 104.386719 795.25 104.984375 C 795.019531 105.585938 794.699219 106.507812 794.558594 106.96875 C 794.421875 107.476562 794.003906 108.402344 793.683594 109 C 792.898438 110.386719 792.851562 111.539062 793.589844 111.863281 C 794.003906 112.046875 794.699219 111.449219 795.988281 109.925781 C 798.019531 107.523438 800.234375 106.1875 803.28125 105.585938 C 810.109375 104.15625 825.378906 104.109375 831.054688 105.492188 C 832.761719 105.910156 834.332031 106.324219 834.5625 106.417969 C 835.808594 106.925781 832.023438 110.800781 826.441406 114.632812 C 822.195312 117.589844 812.875 122.433594 808.539062 123.914062 C 807.800781 124.191406 805.632812 124.972656 803.742188 125.714844 C 800.511719 127.003906 799.128906 127.375 795.804688 127.929688 C 794.699219 128.113281 794.375 128.34375 794.375 128.851562 C 794.375 129.453125 794.652344 129.542969 796.21875 129.542969 C 797.789062 129.542969 808.492188 128.34375 811.03125 127.835938 C 811.628906 127.699219 813.890625 127.605469 816.015625 127.558594 C 819.703125 127.558594 819.9375 127.46875 822.425781 126.128906 C 827.640625 123.359375 831.148438 119.574219 835.992188 111.496094 C 837.421875 109.140625 839.820312 105.171875 841.34375 102.632812 C 842.914062 100.09375 844.160156 97.96875 844.160156 97.875 C 844.160156 97.785156 844.527344 97.277344 844.988281 96.722656 C 845.449219 96.167969 845.820312 95.566406 845.820312 95.382812 C 845.820312 94.96875 843.328125 93.027344 842.820312 93.027344 C 842.3125 93.027344 841.574219 92.613281 840.511719 92.105469 C 837.421875 90.628906 831.425781 89.84375 821.136719 89.519531 C 820.027344 89.519531 819.011719 89.472656 818.089844 89.429688 L 816.9375 89.429688 L 816.9375 89.519531 Z M 1120.804688 100.96875 L 1117.207031 106.140625 C 1118.035156 110.941406 1119.742188 115.742188 1121.035156 119.433594 C 1122.464844 123.449219 1123.203125 123.914062 1122.050781 124.605469 C 1118.496094 126.496094 1113.652344 127.050781 1111.300781 123.035156 C 1110.148438 120.867188 1109.871094 117.863281 1109.59375 114.910156 C 1109.410156 112.785156 1109.179688 110.664062 1108.945312 108.726562 C 1108.300781 104.109375 1107.839844 100.921875 1107.007812 101.800781 C 1105.441406 103.507812 1103.964844 105.402344 1103.824219 106.878906 C 1103.6875 107.847656 1104.054688 109.464844 1104.5625 112.464844 C 1104.933594 114.773438 1105.347656 117.910156 1105.488281 122.160156 C 1105.625 126.265625 1090.628906 132.269531 1091.921875 117.125 C 1092.105469 114.957031 1092.335938 112.785156 1092.523438 110.800781 C 1092.753906 107.894531 1092.796875 105.402344 1092.105469 104.15625 C 1091.785156 103.554688 1088.832031 106.96875 1088.371094 108.078125 C 1088.046875 108.863281 1087.585938 110.15625 1087.445312 111.125 C 1086.9375 114.726562 1088.691406 113.386719 1089.109375 112.972656 C 1090.078125 112.09375 1089.292969 115.878906 1089.199219 117.632812 C 1088.878906 122.851562 1088 129.269531 1092.382812 132.777344 C 1096.71875 136.191406 1102.488281 133.929688 1104.886719 128.898438 C 1106.085938 126.265625 1106.457031 122.527344 1106.734375 123.496094 C 1107.609375 126.820312 1108.671875 129.40625 1110.285156 130.835938 C 1115.082031 135.039062 1120.574219 133.605469 1123.25 128.484375 C 1124.820312 125.527344 1125.789062 121.742188 1125.464844 118.464844 C 1125.28125 116.339844 1124.589844 114.171875 1124.035156 112.234375 C 1122.605469 107.433594 1121.957031 104.570312 1120.851562 100.921875 L 1120.804688 100.921875 Z M 398.046875 102.03125 L 397.539062 102.03125 C 379.128906 103.371094 389.925781 147.085938 384.019531 146.949219 C 383.652344 146.855469 382.3125 142.609375 380.972656 137.578125 C 375.761719 117.679688 369.210938 109.742188 363.8125 107.800781 C 357.722656 105.679688 353.0625 111.078125 353.199219 115.695312 C 353.199219 122.203125 359.199219 124.699219 362.289062 124.699219 C 364.917969 124.882812 366.117188 123.773438 367.777344 125.207031 C 376.820312 133.007812 379.128906 149.488281 382.265625 159.414062 C 382.175781 160.011719 382.40625 162.644531 383.1875 163.566406 C 383.558594 163.984375 384.019531 164.027344 384.664062 163.246094 C 390.617188 154.613281 387.757812 125.296875 391.261719 117.773438 C 393.292969 113.386719 397.628906 112.464844 402.382812 120.449219 C 402.9375 121.835938 403.582031 122.941406 403.8125 122.941406 C 404.964844 122.941406 407.875 114.496094 407.875 111.125 C 407.875 107.753906 404.226562 103.460938 401.550781 102.539062 C 400.398438 102.125 399.199219 101.9375 398.046875 101.984375 Z M 143.269531 142.792969 C 137.640625 142.792969 135.148438 143.441406 131.6875 145.332031 C 129.980469 146.300781 127.953125 147.640625 127.257812 148.332031 C 126.519531 149.027344 125.550781 149.996094 125.042969 150.457031 C 124.539062 150.917969 123.660156 152.625 123.0625 154.242188 C 122.460938 155.859375 121.769531 157.660156 121.539062 158.257812 C 121.308594 158.859375 120.984375 159.78125 120.847656 160.242188 C 120.707031 160.75 120.292969 161.675781 119.96875 162.273438 C 119.183594 163.660156 119.140625 164.8125 119.878906 165.136719 C 120.292969 165.320312 120.984375 164.722656 122.277344 163.199219 C 124.304688 160.796875 126.519531 159.460938 129.566406 158.859375 C 136.394531 157.429688 151.667969 157.382812 157.339844 158.765625 C 159.046875 159.183594 160.617188 159.597656 160.847656 159.691406 C 162.09375 160.199219 158.308594 164.074219 152.726562 167.90625 C 148.484375 170.863281 139.164062 175.707031 134.824219 177.1875 C 134.085938 177.464844 131.917969 178.246094 130.027344 178.988281 C 126.796875 180.277344 125.414062 180.648438 122.089844 181.203125 C 120.984375 181.386719 120.660156 181.617188 120.660156 182.125 C 120.660156 182.632812 120.9375 182.816406 122.507812 182.816406 C 124.074219 182.816406 134.78125 181.617188 137.316406 181.109375 C 137.917969 180.972656 140.179688 180.878906 142.300781 180.832031 C 145.992188 180.832031 146.222656 180.742188 148.714844 179.402344 C 153.925781 176.632812 157.433594 172.847656 162.277344 164.769531 C 163.664062 162.414062 166.109375 158.445312 167.628906 155.90625 C 169.199219 153.367188 170.445312 151.242188 170.445312 151.148438 C 170.445312 151.058594 170.8125 150.550781 171.273438 150.042969 C 171.738281 149.488281 172.105469 148.886719 172.105469 148.703125 C 172.105469 148.289062 169.613281 146.347656 169.105469 146.347656 C 168.597656 146.347656 167.859375 145.933594 166.800781 145.425781 C 163.707031 143.949219 157.710938 143.164062 147.421875 142.839844 C 146.3125 142.839844 145.300781 142.839844 144.375 142.746094 L 143.222656 142.746094 Z M 678.890625 143.484375 C 678.382812 143.484375 677.367188 144.410156 675.570312 146.300781 C 672.246094 149.855469 667.632812 156.503906 665.832031 160.382812 C 658.265625 176.539062 664.402344 187.34375 670.632812 187.066406 C 680.460938 186.601562 682.8125 168.460938 681.613281 168.644531 C 679.765625 171.921875 676.628906 179.539062 670.679688 176.816406 C 669.0625 175.984375 668.1875 173.953125 667.910156 171.09375 C 667.402344 165.367188 670.308594 156.367188 678.199219 146.347656 C 678.84375 145.515625 679.351562 144.546875 679.304688 144.132812 C 679.304688 143.71875 679.167969 143.484375 678.890625 143.484375 Z M 597.917969 152.074219 L 583.707031 174.691406 L 611.066406 190.527344 L 625.277344 167.90625 Z M 1308.496094 153.042969 C 1302.867188 153.042969 1300.375 153.6875 1296.914062 155.582031 C 1295.207031 156.550781 1293.179688 157.890625 1292.484375 158.582031 C 1291.746094 159.273438 1290.777344 160.242188 1290.269531 160.707031 C 1289.761719 161.167969 1288.886719 162.875 1288.285156 164.492188 C 1287.6875 166.105469 1286.996094 167.90625 1286.765625 168.507812 C 1286.535156 169.105469 1286.210938 170.03125 1286.074219 170.492188 C 1285.933594 171 1285.519531 171.921875 1285.195312 172.523438 C 1284.410156 173.910156 1284.367188 175.0625 1285.105469 175.386719 C 1285.519531 175.570312 1286.210938 174.96875 1287.503906 173.445312 C 1289.53125 171.046875 1291.746094 169.707031 1294.792969 169.105469 C 1301.621094 167.675781 1316.894531 167.628906 1322.566406 169.015625 C 1324.273438 169.429688 1325.84375 169.847656 1326.074219 169.9375 C 1327.320312 170.445312 1323.535156 174.324219 1317.953125 178.15625 C 1313.710938 181.109375 1304.390625 185.957031 1300.050781 187.433594 C 1299.3125 187.710938 1297.144531 188.496094 1295.253906 189.234375 C 1292.023438 190.527344 1290.640625 190.898438 1287.316406 191.449219 C 1286.210938 191.636719 1285.886719 191.867188 1285.886719 192.375 C 1285.886719 192.882812 1286.164062 193.066406 1287.734375 193.066406 C 1289.300781 193.066406 1300.007812 191.867188 1302.542969 191.359375 C 1303.144531 191.21875 1305.40625 191.128906 1307.527344 191.082031 C 1311.21875 191.082031 1311.449219 190.988281 1313.941406 189.648438 C 1319.152344 186.878906 1322.660156 183.09375 1327.503906 175.015625 C 1328.890625 172.660156 1331.335938 168.691406 1332.855469 166.152344 C 1334.425781 163.613281 1335.671875 161.488281 1335.671875 161.398438 C 1335.671875 161.304688 1336.039062 160.796875 1336.5 160.242188 C 1336.964844 159.691406 1337.332031 159.089844 1337.332031 158.90625 C 1337.332031 158.488281 1334.839844 156.550781 1334.332031 156.550781 C 1333.824219 156.550781 1333.085938 156.136719 1332.027344 155.628906 C 1328.933594 154.148438 1322.9375 153.367188 1312.648438 153.042969 C 1311.542969 153.042969 1310.527344 153.042969 1309.601562 152.949219 L 1308.449219 152.949219 L 1308.449219 153.042969 Z M 243.066406 155.210938 C 241.542969 155.210938 240.113281 155.304688 238.777344 155.535156 C 237.4375 155.765625 236.144531 156.136719 234.992188 156.597656 C 233.792969 157.058594 232.730469 157.613281 231.714844 158.304688 C 230.703125 158.953125 229.777344 159.691406 228.902344 160.519531 C 228.027344 161.351562 227.242188 162.230469 226.550781 163.105469 C 225.8125 164.027344 225.164062 165 224.566406 165.96875 C 223.410156 167.953125 222.488281 170.03125 221.796875 172.0625 C 221.105469 174.09375 220.644531 176.03125 220.320312 177.785156 C 220.042969 179.539062 219.90625 181.019531 219.953125 182.125 C 219.953125 183.234375 220.183594 183.972656 220.457031 184.15625 C 220.964844 184.480469 229.457031 184.804688 239.421875 184.894531 L 257.460938 185.082031 L 267.75 189.097656 C 273.011719 191.128906 276.285156 192.421875 279.425781 193.4375 C 282.5625 194.496094 285.558594 195.328125 290.21875 196.621094 C 293.171875 197.40625 298.847656 198.976562 302.816406 200.082031 C 306.832031 201.191406 310.707031 202.070312 311.445312 202.070312 C 312.183594 202.070312 312.367188 202.160156 312.503906 202.390625 C 312.644531 202.578125 312.503906 202.898438 312.273438 203.222656 C 311.722656 203.914062 310.429688 204.929688 308.445312 206.039062 C 301.015625 210.238281 292.710938 214.902344 284.128906 219.101562 C 279.839844 221.226562 275.503906 223.257812 271.117188 225.058594 C 266.78125 226.859375 262.445312 228.472656 258.152344 229.765625 C 253.910156 231.058594 249.710938 232.027344 245.695312 232.582031 C 243.667969 232.859375 241.730469 233.042969 239.789062 233.089844 C 237.851562 233.136719 236.007812 233.089844 234.160156 232.90625 C 232.363281 232.722656 230.5625 232.398438 228.902344 231.9375 C 227.195312 231.476562 225.582031 230.875 224.011719 230.089844 C 222.441406 229.304688 220.964844 228.382812 219.582031 227.273438 C 218.199219 226.167969 216.90625 224.917969 215.660156 223.441406 C 214.324219 221.828125 213.03125 219.886719 211.832031 217.625 C 210.632812 215.363281 209.476562 212.6875 208.417969 209.640625 C 208 208.394531 207.449219 207.46875 206.847656 206.730469 C 206.25 206.039062 205.511719 205.578125 204.773438 205.347656 C 203.988281 205.117188 203.15625 205.117188 202.234375 205.347656 C 201.3125 205.578125 200.390625 205.945312 199.375 206.546875 C 196.28125 208.992188 193.558594 211.578125 191.160156 214.210938 C 188.761719 216.839844 186.730469 219.609375 184.976562 222.425781 C 183.226562 225.242188 181.839844 228.152344 180.6875 231.058594 C 179.582031 234.015625 178.75 237.015625 178.195312 240.109375 C 177.640625 243.199219 177.367188 246.292969 177.367188 249.480469 C 177.367188 252.664062 177.597656 255.894531 178.105469 259.128906 C 178.609375 262.40625 179.304688 265.683594 180.273438 269.007812 C 181.195312 272.332031 182.394531 275.699219 183.734375 279.070312 C 184.5625 281.238281 185.253906 283.269531 185.253906 283.640625 C 185.253906 284.011719 183.457031 284.703125 181.242188 285.257812 C 177.597656 286.132812 173.90625 287.332031 170.121094 288.902344 C 166.382812 290.472656 162.554688 292.320312 158.773438 294.398438 C 154.988281 296.472656 151.203125 298.78125 147.46875 301.230469 C 143.730469 303.675781 140.085938 306.308594 136.53125 308.9375 C 132.980469 311.617188 129.519531 314.339844 126.199219 317.0625 C 122.875 319.789062 119.738281 322.511719 116.785156 325.140625 C 110.878906 330.40625 105.710938 335.34375 101.746094 339.269531 C 98.652344 342.363281 95.609375 345.085938 92.65625 347.4375 C 89.703125 349.839844 86.796875 351.871094 83.980469 353.625 C 81.167969 355.378906 78.445312 356.765625 75.816406 357.917969 C 73.183594 359.027344 70.648438 359.859375 68.203125 360.410156 C 65.757812 360.964844 63.449219 361.242188 61.234375 361.289062 C 59.019531 361.289062 56.945312 361.105469 54.960938 360.597656 C 53.023438 360.132812 51.175781 359.441406 49.46875 358.519531 C 47.761719 357.59375 46.195312 356.488281 44.808594 355.148438 C 43.101562 353.53125 41.625 351.6875 40.378906 349.515625 C 39.132812 347.394531 38.121094 344.992188 37.382812 342.40625 C 36.644531 339.824219 36.136719 337.007812 35.90625 334.003906 C 35.675781 331.003906 35.71875 327.867188 36.089844 324.542969 C 36.457031 321.21875 37.105469 317.800781 38.027344 314.246094 C 38.996094 310.691406 40.242188 307 41.855469 303.261719 C 43.472656 299.519531 45.363281 295.691406 47.671875 291.859375 C 49.929688 287.980469 52.5625 284.101562 55.558594 280.222656 C 56.757812 278.65625 57.683594 277.269531 58.375 276.070312 C 59.066406 274.914062 59.480469 273.945312 59.667969 273.253906 C 59.851562 272.5625 59.851562 272.144531 59.621094 272.007812 C 59.390625 271.867188 59.019531 272.007812 58.421875 272.5625 C 55.007812 275.699219 51.914062 278.933594 49.191406 282.300781 C 46.472656 285.671875 44.027344 289.132812 41.949219 292.734375 C 39.871094 296.335938 38.074219 300.027344 36.597656 303.8125 C 35.121094 307.601562 33.96875 311.476562 33.089844 315.449219 C 32.351562 318.816406 31.796875 322.234375 31.476562 325.742188 C 31.152344 329.203125 31.015625 332.757812 31.105469 336.3125 C 31.152344 339.867188 31.429688 343.515625 31.890625 347.164062 C 32.351562 350.808594 33 354.503906 33.828125 358.242188 C 34.199219 359.996094 34.660156 361.703125 35.214844 363.367188 C 35.765625 365.027344 36.367188 366.597656 37.058594 368.121094 C 37.75 369.644531 38.488281 371.121094 39.320312 372.507812 C 40.148438 373.890625 41.074219 375.183594 42.042969 376.382812 C 43.011719 377.585938 44.070312 378.738281 45.226562 379.753906 C 46.332031 380.769531 47.53125 381.691406 48.824219 382.523438 C 50.117188 383.355469 51.453125 384.046875 52.835938 384.601562 C 54.269531 385.15625 55.746094 385.617188 57.3125 385.941406 C 58.882812 386.261719 60.496094 386.449219 62.203125 386.496094 C 63.910156 386.539062 65.664062 386.402344 67.511719 386.171875 C 69.355469 385.894531 71.246094 385.480469 73.230469 384.878906 C 75.214844 384.277344 77.246094 383.539062 79.367188 382.570312 C 81.488281 381.648438 83.660156 380.492188 85.917969 379.199219 C 88.179688 377.90625 90.488281 376.382812 92.886719 374.675781 C 95.285156 372.96875 97.730469 371.074219 100.269531 368.953125 C 102.804688 366.828125 105.390625 364.472656 108.066406 361.933594 C 115.261719 355.011719 122.046875 348.6875 128.089844 343.378906 C 131.089844 340.699219 133.949219 338.34375 136.53125 336.222656 C 139.117188 334.144531 141.46875 332.390625 143.546875 330.957031 C 147.328125 328.417969 150.835938 326.15625 154.113281 324.171875 C 157.339844 322.1875 160.339844 320.480469 163.0625 318.957031 C 165.785156 317.480469 168.277344 316.1875 170.535156 315.125 C 172.796875 314.0625 174.875 313.1875 176.71875 312.445312 C 180.410156 311.015625 183.316406 310.230469 185.625 309.722656 C 187.929688 309.261719 189.59375 309.125 190.839844 309.03125 C 192.5 308.9375 194.023438 308.890625 195.589844 309.03125 C 197.160156 309.125 198.679688 309.355469 200.433594 309.722656 C 203.894531 310.460938 208.046875 311.847656 214.089844 314.109375 C 221.703125 316.925781 224.886719 317.988281 226.410156 318.355469 C 227.933594 318.726562 227.839844 318.355469 228.902344 318.449219 L 231.441406 306.859375 C 231.578125 301.738281 231.625 298.78125 231.441406 296.9375 C 231.347656 296.011719 231.253906 295.367188 231.070312 294.90625 C 230.886719 294.398438 230.703125 294.074219 230.378906 293.75 C 230.007812 293.335938 229.824219 292.917969 229.039062 292.273438 C 228.300781 291.628906 227.011719 290.703125 224.472656 289.320312 C 220.875 287.058594 216.398438 284.519531 211.691406 281.609375 C 209.339844 280.179688 206.988281 278.65625 204.632812 277.039062 C 202.28125 275.421875 200.019531 273.761719 197.851562 271.960938 C 195.683594 270.160156 193.652344 268.3125 191.851562 266.375 C 190.054688 264.390625 188.484375 262.359375 187.191406 260.1875 C 186.546875 259.128906 185.992188 258.019531 185.53125 256.867188 C 185.070312 255.757812 184.703125 254.601562 184.425781 253.402344 C 184.148438 252.203125 183.964844 251.003906 183.917969 249.800781 C 183.917969 248.554688 183.917969 247.308594 184.101562 246.015625 C 184.378906 244.445312 184.839844 242.878906 185.484375 241.355469 C 186.132812 239.832031 187.007812 238.355469 188.117188 237.015625 C 189.222656 235.675781 190.5625 234.476562 192.128906 233.414062 C 193.746094 232.398438 195.589844 231.519531 197.757812 230.921875 C 198.265625 230.78125 198.773438 230.828125 199.234375 230.921875 C 199.695312 231.105469 200.203125 231.382812 200.664062 231.84375 C 201.632812 232.722656 202.601562 234.058594 203.710938 235.675781 C 204.816406 237.292969 206.015625 239.230469 207.449219 241.261719 C 208.878906 243.292969 210.539062 245.417969 212.476562 247.449219 C 213.445312 248.464844 214.507812 249.480469 215.613281 250.402344 C 216.769531 251.371094 217.96875 252.25 219.304688 253.078125 C 220.644531 253.910156 222.074219 254.695312 223.597656 255.34375 C 225.117188 256.035156 226.78125 256.589844 228.53125 257.050781 C 247.632812 262.082031 268.765625 251.234375 283.714844 242.601562 C 290.449219 238.722656 297.140625 234.660156 303.878906 230.828125 C 307.246094 228.9375 310.660156 227.042969 314.121094 225.335938 C 317.582031 223.582031 321.039062 221.964844 324.59375 220.488281 C 328.144531 219.011719 331.746094 217.671875 335.390625 216.5625 C 339.035156 215.457031 342.816406 214.578125 346.601562 213.933594 C 347.246094 213.839844 351.675781 213.285156 360.257812 213.054688 C 364.550781 212.917969 369.855469 212.871094 376.269531 213.054688 C 382.683594 213.195312 390.15625 213.515625 398.738281 214.117188 C 399.335938 212.363281 400.492188 210.195312 401.78125 207.929688 C 403.027344 205.667969 404.414062 203.269531 405.472656 201.097656 C 405.980469 199.992188 406.441406 198.976562 406.765625 198.007812 C 407.089844 197.035156 407.273438 196.207031 407.273438 195.421875 C 407.273438 194.636719 407.089844 194.035156 406.671875 193.621094 C 406.257812 193.160156 405.613281 192.882812 404.644531 192.789062 C 397.859375 192.421875 391.21875 191.914062 384.664062 191.171875 C 378.113281 190.480469 371.65625 189.605469 365.242188 188.589844 C 358.828125 187.574219 352.507812 186.417969 346.230469 185.125 C 339.957031 183.832031 333.730469 182.402344 327.5 180.878906 C 321.269531 179.308594 315.089844 177.648438 308.90625 175.847656 C 302.722656 174.046875 296.542969 172.152344 290.359375 170.167969 C 277.992188 166.199219 265.535156 161.765625 252.847656 157.105469 C 250.910156 156.414062 249.109375 155.859375 247.402344 155.488281 C 245.695312 155.121094 244.082031 154.933594 242.558594 154.890625 L 243.019531 155.304688 Z M 1208.238281 189.1875 C 1208.558594 189.417969 1208.746094 189.464844 1208.652344 189.28125 Z M 1077.710938 195.882812 L 1074.480469 205.714844 C 1083.339844 220.855469 1090.308594 240.109375 1087.863281 268.128906 C 1089.015625 261.945312 1090.214844 261.4375 1091.367188 244.953125 C 1091.414062 226.027344 1086.339844 211.625 1080.800781 200.683594 C 1079.832031 198.746094 1078.957031 197.5 1077.757812 195.835938 L 1077.710938 195.835938 Z M 875.71875 208.902344 C 880.839844 208.902344 887.34375 208.992188 893.804688 209.269531 C 893.988281 210.46875 894.171875 211.761719 894.355469 212.964844 C 895.601562 221.410156 896.617188 229.167969 897.125 234.890625 C 897.265625 236.277344 897.265625 237.660156 897.171875 238.953125 C 897.078125 240.292969 896.894531 241.585938 896.570312 242.832031 C 896.292969 244.078125 895.878906 245.324219 895.417969 246.523438 C 894.957031 247.726562 894.355469 248.878906 893.664062 250.03125 C 892.328125 252.296875 890.667969 254.464844 888.636719 256.542969 C 880.46875 264.945312 867.367188 271.40625 853.15625 276.53125 C 849.464844 277.871094 845.679688 279.070312 841.804688 280.269531 C 835.714844 282.117188 829.992188 283.917969 824.550781 285.765625 C 819.105469 287.609375 814.03125 289.457031 809.140625 291.441406 C 804.25 293.425781 799.636719 295.550781 795.207031 297.90625 C 790.777344 300.257812 786.53125 302.796875 782.425781 305.660156 C 778.964844 308.0625 775.78125 310.601562 772.875 313.140625 C 769.96875 315.679688 767.292969 318.261719 764.847656 320.847656 C 759.863281 326.019531 755.574219 331.191406 751.328125 336.082031 C 749.207031 338.53125 747.128906 340.839844 744.960938 343.101562 C 742.792969 345.316406 740.578125 347.4375 738.226562 349.378906 C 735.871094 351.316406 733.378906 353.070312 730.65625 354.640625 C 727.9375 356.210938 725.027344 357.550781 721.84375 358.703125 C 720.09375 359.304688 718.386719 359.765625 716.679688 360.089844 C 715.015625 360.410156 713.355469 360.597656 711.789062 360.640625 C 710.171875 360.640625 708.648438 360.640625 707.171875 360.367188 C 705.695312 360.089844 704.21875 359.765625 702.835938 359.257812 C 701.453125 358.75 700.113281 358.148438 698.867188 357.410156 C 697.621094 356.671875 696.421875 355.796875 695.269531 354.824219 C 694.164062 353.855469 693.101562 352.75 692.132812 351.5 C 691.164062 350.300781 690.242188 348.960938 689.410156 347.484375 C 688.578125 346.054688 687.839844 344.484375 687.195312 342.824219 C 686.550781 341.160156 685.949219 339.40625 685.488281 337.558594 C 685.027344 335.714844 684.613281 333.730469 684.335938 331.699219 C 684.058594 329.621094 683.875 327.496094 683.78125 325.234375 C 683.6875 322.972656 683.78125 320.664062 683.875 318.261719 C 684.566406 305.660156 688.070312 292.132812 694.253906 277.175781 C 694.394531 277.363281 694.53125 277.546875 694.671875 277.683594 C 696.515625 279.761719 698.960938 281.886719 701.636719 283.871094 C 704.3125 285.855469 707.265625 287.65625 709.988281 289.089844 C 712.757812 290.519531 715.339844 291.625 717.371094 292.132812 C 724.246094 288.71875 723.875 260.835938 724.105469 254.648438 L 727.890625 254.925781 C 729.414062 255.019531 731.257812 255.019531 733.289062 254.835938 C 735.316406 254.695312 737.578125 254.417969 739.976562 254.050781 C 762.539062 251.324219 782.472656 239.644531 802.632812 229.953125 C 809.878906 226.488281 817.167969 223.121094 824.597656 220.210938 C 828.285156 218.734375 832.023438 217.347656 835.808594 216.101562 C 839.589844 214.855469 843.375 213.703125 847.25 212.730469 C 851.125 211.761719 855 210.976562 858.96875 210.332031 C 862.9375 209.730469 866.949219 209.269531 871.011719 209.085938 C 872.347656 209.085938 873.917969 209.085938 875.625 209.085938 L 875.71875 208.945312 Z M 116.648438 228.660156 C 116.140625 228.660156 115.125 229.582031 113.324219 231.476562 C 110.003906 235.03125 105.390625 241.675781 103.589844 245.554688 C 96.023438 261.710938 102.160156 272.515625 108.386719 272.238281 C 118.214844 271.777344 120.570312 253.632812 119.371094 253.820312 C 117.523438 257.097656 114.386719 264.714844 108.433594 261.988281 C 106.820312 261.160156 105.941406 259.128906 105.667969 256.265625 C 105.160156 250.539062 108.066406 241.539062 115.957031 231.519531 C 116.601562 230.691406 117.109375 229.722656 117.0625 229.304688 C 117.0625 228.890625 116.925781 228.660156 116.648438 228.660156 Z M 412.441406 229.351562 L 408.84375 234.523438 C 409.671875 239.324219 411.378906 244.125 412.671875 247.816406 C 414.101562 251.832031 414.839844 252.296875 413.6875 252.988281 C 410.132812 254.878906 405.289062 255.433594 402.9375 251.417969 C 401.78125 249.25 401.507812 246.246094 401.230469 243.292969 C 401.042969 241.167969 400.8125 239.046875 400.582031 237.105469 C 399.9375 232.445312 399.476562 229.304688 398.644531 230.183594 C 397.078125 231.890625 395.601562 233.785156 395.460938 235.261719 C 395.324219 236.230469 395.691406 237.847656 396.199219 240.847656 C 396.570312 243.15625 396.984375 246.292969 397.121094 250.539062 C 397.261719 254.648438 382.265625 260.652344 383.558594 245.507812 C 383.742188 243.339844 383.972656 241.167969 384.15625 239.183594 C 384.390625 236.277344 384.433594 233.785156 383.742188 232.535156 C 383.417969 231.9375 380.511719 235.351562 380.003906 236.460938 C 379.683594 237.246094 379.222656 238.539062 379.082031 239.554688 C 378.574219 243.15625 380.328125 241.816406 380.742188 241.398438 C 381.710938 240.523438 380.929688 244.308594 380.835938 246.0625 C 380.511719 251.28125 379.636719 257.695312 384.019531 261.203125 C 388.355469 264.621094 394.125 262.359375 396.523438 257.328125 C 397.722656 254.695312 398.09375 250.957031 398.367188 251.925781 C 399.246094 255.25 400.304688 257.835938 401.921875 259.265625 C 406.71875 263.464844 412.210938 262.035156 414.886719 256.910156 C 416.453125 253.957031 417.425781 250.171875 417.101562 246.894531 C 416.917969 244.769531 416.222656 242.601562 415.671875 240.660156 C 414.242188 235.859375 413.59375 233 412.488281 229.351562 Z M 837.238281 232.722656 L 833.640625 237.890625 C 834.46875 242.691406 836.175781 247.492188 837.46875 251.1875 C 838.898438 255.203125 839.636719 255.664062 838.484375 256.359375 C 834.929688 258.25 830.085938 258.804688 827.734375 254.789062 C 826.578125 252.617188 826.304688 249.617188 826.070312 246.664062 C 825.886719 244.539062 825.65625 242.414062 825.425781 240.476562 C 824.78125 235.816406 824.320312 232.675781 823.488281 233.550781 C 821.917969 235.261719 820.441406 237.152344 820.304688 238.628906 C 820.210938 239.601562 820.535156 241.214844 821.042969 244.214844 C 821.414062 246.523438 821.828125 249.664062 821.964844 253.910156 C 822.105469 258.019531 807.109375 264.019531 808.402344 248.878906 C 808.585938 246.710938 808.816406 244.539062 809 242.554688 C 809.230469 239.644531 809.277344 237.199219 808.585938 235.90625 C 808.261719 235.308594 805.308594 238.722656 804.847656 239.832031 C 804.527344 240.617188 804.0625 241.90625 803.925781 242.921875 C 803.417969 246.523438 805.171875 245.1875 805.585938 244.769531 C 806.554688 243.894531 805.769531 247.679688 805.679688 249.433594 C 805.355469 254.648438 804.480469 261.066406 808.910156 264.574219 C 813.246094 267.992188 819.011719 265.730469 821.414062 260.695312 C 822.613281 258.066406 822.980469 254.328125 823.257812 255.296875 C 824.132812 258.621094 825.195312 261.203125 826.8125 262.636719 C 831.609375 266.835938 837.097656 265.40625 839.777344 260.28125 C 841.34375 257.328125 842.3125 253.542969 841.992188 250.265625 C 841.804688 248.140625 841.113281 245.96875 840.558594 244.03125 C 839.128906 239.230469 838.484375 236.367188 837.375 232.722656 Z M 1319.660156 247.539062 C 1319.292969 248.1875 1318.96875 249.015625 1318.691406 249.894531 L 1319.707031 273.855469 L 1324.230469 275.238281 C 1322.753906 308.984375 1353.113281 332.25 1376.132812 356.535156 C 1378.902344 359.441406 1381.164062 362.074219 1382.964844 364.566406 C 1387.578125 370.84375 1390.113281 375.277344 1390.113281 379.152344 C 1390.113281 383.03125 1386.421875 387.832031 1378.347656 393.417969 C 1364.738281 402.789062 1338.714844 403.390625 1331.105469 385.246094 C 1328.382812 378.738281 1328.890625 373.800781 1328.152344 373.890625 C 1323.304688 381.230469 1319.570312 388.292969 1315.648438 396.1875 C 1307.757812 411.375 1292.253906 414.65625 1281.828125 409.207031 C 1274.769531 405.515625 1270.0625 397.757812 1271.675781 387.003906 C 1272.046875 384.648438 1272.507812 381.554688 1273.0625 377.214844 C 1270.15625 380.910156 1267.894531 385.015625 1265.496094 389.078125 C 1255.160156 406.34375 1242.519531 415.714844 1231.121094 418.210938 C 1224.707031 419.59375 1196.886719 423.332031 1205.054688 380.910156 C 1146.550781 397.390625 1110.378906 410.085938 1062.902344 420.148438 C 984.097656 436.859375 696.882812 483.902344 425.265625 459.15625 C 336.40625 451.078125 237.484375 434.042969 201.125 398.21875 L 199.234375 400.066406 C 198.773438 400.527344 198.40625 400.851562 198.082031 401.082031 C 197.757812 401.3125 197.4375 401.453125 197.066406 401.453125 C 196.28125 401.453125 195.265625 401.128906 193.238281 400.4375 C 191.992188 399.972656 190.792969 399.652344 189.59375 399.421875 C 152.589844 394.296875 113.742188 447.0625 89.609375 468.019531 C 68.109375 486.714844 43.378906 489.164062 29.675781 479.652344 C 0.976562 459.710938 30.230469 410.683594 30.230469 407.820312 C 30.230469 404.960938 30.136719 407.546875 30 407.546875 C 29.859375 407.546875 29.628906 407.683594 29.308594 407.914062 C 28.707031 408.375 27.832031 409.160156 26.90625 410.316406 C 19.617188 419.457031 15.144531 429.980469 13.113281 440.738281 C 10.527344 454.449219 11.867188 468.480469 16.527344 480.253906 C 25.476562 502.964844 46.746094 512.523438 72.308594 503.566406 C 90.855469 497.058594 109.035156 476.46875 127.257812 457.957031 C 147.285156 437.597656 167.351562 419.777344 188.023438 425.871094 C 189.175781 426.195312 190.101562 426.75 190.839844 427.441406 C 191.253906 427.8125 191.574219 428.226562 191.851562 428.6875 C 192.128906 429.148438 192.359375 429.65625 192.546875 430.351562 C 192.269531 445.445312 210.445312 476.605469 228.070312 479.5625 C 228.71875 479.5625 229.179688 479.652344 229.546875 479.5625 C 229.917969 479.46875 230.195312 479.332031 230.378906 478.960938 C 230.792969 478.222656 230.933594 476.699219 231.253906 473.699219 C 232.917969 457.726562 229.824219 446.324219 227.378906 442.628906 C 234.578125 445.585938 275.777344 459.15625 297.832031 463.910156 C 473.480469 502.042969 820.027344 503.242188 1120.390625 428.089844 C 1140.828125 422.964844 1153.425781 418.761719 1171.601562 412.484375 C 1177.371094 410.5 1183.644531 408.285156 1190.980469 405.789062 C 1193.84375 404.820312 1194.996094 405.050781 1195.316406 405.050781 C 1195.640625 405.050781 1195.917969 406.53125 1195.871094 408.285156 C 1195.734375 439.859375 1230.84375 459.804688 1251.882812 431.179688 C 1256.175781 425.363281 1259.820312 418.484375 1262.082031 413.175781 C 1263.050781 410.914062 1263.972656 409.070312 1264.757812 407.5 C 1263.695312 413.546875 1267.203125 423.472656 1274.398438 429.796875 C 1279.058594 433.90625 1285.242188 436.488281 1292.671875 435.566406 C 1318.183594 432.289062 1325.199219 399.464844 1324.78125 401.265625 C 1324.042969 404.3125 1324.828125 407.777344 1326.765625 411.144531 C 1339.730469 433.488281 1382.503906 434.875 1397.636719 390.789062 C 1401.695312 379.015625 1402.480469 364.796875 1398.695312 353.164062 C 1394.082031 338.992188 1382.363281 327.726562 1369.859375 315.863281 C 1358.464844 305.105469 1346.46875 293.84375 1338.484375 279.578125 L 1377.980469 291.582031 C 1375.71875 288.117188 1372.398438 284.101562 1362.894531 276.761719 C 1356.019531 271.453125 1345.867188 264.390625 1330.550781 254.511719 C 1330.503906 253.820312 1330.410156 253.355469 1330.273438 253.449219 C 1330.136719 253.542969 1329.902344 253.632812 1329.582031 253.863281 C 1326.488281 251.878906 1323.261719 249.800781 1319.753906 247.632812 Z M 358.964844 259.914062 C 358.460938 260.097656 345.449219 265.496094 325.425781 273.898438 C 310.984375 279.949219 290.589844 288.625 270.933594 296.9375 L 270.933594 305.105469 C 289.390625 297.257812 308.582031 289.132812 322.285156 283.363281 C 341.574219 275.285156 354.539062 269.882812 356.660156 269.007812 L 358.964844 259.867188 Z M 512.839844 267.253906 C 512.332031 267.253906 511.316406 268.175781 509.515625 270.066406 C 506.195312 273.621094 501.582031 280.269531 499.78125 284.148438 C 492.214844 300.304688 498.351562 311.109375 504.578125 310.832031 C 514.40625 310.371094 516.761719 292.226562 515.558594 292.410156 C 513.714844 295.6875 510.578125 303.304688 504.625 300.582031 C 503.011719 299.75 502.132812 297.71875 501.855469 294.859375 C 501.394531 289.132812 504.257812 280.132812 512.144531 270.113281 C 512.792969 269.285156 513.300781 268.3125 513.253906 267.898438 C 513.253906 267.484375 513.113281 267.253906 512.839844 267.253906 Z M 1136.492188 333.175781 C 1135.984375 333.175781 1134.96875 334.097656 1133.167969 335.992188 C 1129.847656 339.546875 1125.234375 346.191406 1123.433594 350.070312 C 1115.867188 366.226562 1122.003906 377.03125 1128.234375 376.753906 C 1138.058594 376.292969 1140.414062 358.148438 1139.214844 358.335938 C 1137.367188 361.613281 1134.230469 369.230469 1128.277344 366.503906 C 1126.664062 365.675781 1125.789062 363.644531 1125.511719 360.78125 C 1125.003906 355.054688 1127.910156 346.054688 1135.800781 336.035156 C 1136.445312 335.207031 1136.953125 334.238281 1136.90625 333.820312 C 1136.90625 333.40625 1136.769531 333.175781 1136.492188 333.175781 Z M 922.226562 335.207031 C 921.53125 335.207031 920.101562 336.636719 917.519531 339.636719 C 912.8125 345.175781 906.261719 355.5625 903.675781 361.65625 C 892.972656 386.957031 901.648438 403.804688 910.460938 403.34375 C 924.394531 402.652344 927.761719 374.214844 926.054688 374.539062 C 923.425781 379.660156 918.949219 391.617188 910.503906 387.277344 C 908.246094 385.941406 906.953125 382.847656 906.582031 378.277344 C 905.890625 369.320312 910 355.242188 921.164062 339.546875 C 922.085938 338.253906 922.824219 336.730469 922.777344 336.128906 C 922.777344 335.4375 922.59375 335.113281 922.226562 335.160156 Z M 200.988281 343.792969 L 186.777344 366.414062 L 214.136719 382.246094 L 228.347656 359.625 Z M 154.757812 346.839844 L 140.546875 369.460938 L 167.90625 385.292969 L 182.117188 362.671875 Z M 1091.96875 352.285156 C 1084.125 355.703125 1076.144531 359.164062 1068.761719 362.441406 C 1056.394531 367.9375 1044.769531 373.152344 1034.527344 377.863281 C 1024.238281 382.570312 1015.285156 386.816406 1008.179688 390.371094 C 1004.628906 392.125 1001.582031 393.742188 999.046875 395.128906 C 996.507812 396.511719 994.523438 397.710938 993.140625 398.636719 L 993.140625 406.804688 C 994.523438 405.835938 996.507812 404.683594 999.046875 403.296875 C 1001.582031 401.914062 1004.628906 400.296875 1008.179688 398.542969 C 1015.285156 394.988281 1024.238281 390.742188 1034.527344 386.03125 C 1044.816406 381.324219 1056.394531 376.105469 1068.761719 370.613281 C 1076.144531 367.335938 1084.171875 363.875 1091.96875 360.457031 Z M 416.453125 354.039062 L 415.949219 354.039062 C 397.539062 355.378906 408.335938 399.097656 402.429688 398.957031 C 402.058594 398.867188 400.722656 394.617188 399.382812 389.585938 C 394.171875 369.691406 387.617188 361.75 382.21875 359.8125 C 376.128906 357.6875 371.46875 363.089844 371.609375 367.707031 C 371.609375 374.214844 377.605469 376.707031 380.699219 376.707031 C 383.328125 376.890625 384.527344 375.785156 386.1875 377.261719 C 395.230469 385.0625 397.539062 401.542969 400.675781 411.46875 C 400.582031 412.070312 400.8125 414.699219 401.597656 415.625 C 401.96875 416.039062 402.429688 416.085938 403.074219 415.300781 C 409.027344 406.667969 406.167969 377.355469 409.671875 369.828125 C 411.703125 365.441406 416.039062 364.519531 420.792969 372.507812 C 421.347656 373.890625 421.992188 375 422.222656 375 C 423.375 375 426.28125 366.550781 426.28125 363.179688 C 426.28125 359.8125 422.636719 355.519531 419.960938 354.59375 C 418.808594 354.179688 417.609375 353.996094 416.457031 354.039062 Z M 848.820312 361.890625 L 848.3125 361.890625 C 829.902344 363.226562 840.699219 406.945312 834.792969 406.804688 C 834.421875 406.714844 833.039062 402.46875 831.746094 397.433594 C 826.535156 377.539062 819.980469 369.597656 814.582031 367.660156 C 808.492188 365.535156 803.832031 370.9375 803.972656 375.554688 C 803.972656 382.0625 809.96875 384.554688 813.0625 384.554688 C 815.691406 384.738281 816.890625 383.632812 818.550781 385.0625 C 827.59375 392.863281 829.902344 409.34375 833.039062 419.269531 C 832.945312 419.871094 833.175781 422.503906 833.960938 423.378906 C 834.332031 423.792969 834.792969 423.839844 835.4375 423.054688 C 841.390625 414.421875 838.53125 385.109375 842.035156 377.585938 C 844.066406 373.199219 848.402344 372.277344 853.15625 380.261719 C 853.707031 381.648438 854.355469 382.753906 854.585938 382.753906 C 855.738281 382.753906 858.644531 374.308594 858.644531 370.9375 C 858.644531 367.566406 855 363.273438 852.324219 362.351562 C 851.171875 361.933594 849.972656 361.75 848.816406 361.796875 L 848.816406 361.890625 Z M 653.746094 366.597656 C 645.949219 370.011719 637.917969 373.476562 630.539062 376.753906 C 618.171875 382.246094 606.546875 387.417969 596.300781 392.171875 C 586.015625 396.882812 577.0625 401.175781 569.957031 404.683594 C 566.40625 406.4375 563.359375 408.054688 560.820312 409.4375 C 558.285156 410.824219 556.300781 412.023438 554.917969 412.945312 L 554.917969 421.117188 C 556.300781 420.148438 558.285156 418.992188 560.820312 417.609375 C 563.359375 416.222656 566.40625 414.609375 569.957031 412.855469 C 577.0625 409.300781 586.015625 405.050781 596.300781 400.34375 C 606.589844 395.632812 618.171875 390.417969 630.539062 384.925781 C 637.917969 381.648438 645.949219 378.183594 653.746094 374.769531 Z M 768.308594 384.140625 C 767.800781 384.140625 766.785156 385.0625 764.984375 387.003906 C 761.664062 390.558594 757.050781 397.203125 755.25 401.082031 C 747.683594 417.238281 753.820312 428.042969 760.046875 427.765625 C 769.875 427.304688 772.230469 409.160156 771.027344 409.34375 C 769.183594 412.625 766.046875 420.238281 760.09375 417.515625 C 758.480469 416.6875 757.601562 414.65625 757.324219 411.792969 C 756.820312 406.066406 759.726562 397.066406 767.613281 387.046875 C 768.261719 386.21875 768.769531 385.246094 768.722656 384.832031 C 768.722656 384.417969 768.582031 384.1875 768.308594 384.1875 Z M 665.464844 388.480469 C 664.957031 388.480469 663.941406 389.402344 662.140625 391.296875 C 658.820312 394.851562 654.207031 401.496094 652.40625 405.375 C 644.839844 421.53125 650.976562 432.335938 657.207031 432.058594 C 667.03125 431.597656 669.386719 413.453125 668.1875 413.640625 C 666.339844 416.917969 663.203125 424.535156 657.25 421.808594 C 655.636719 420.980469 654.761719 418.949219 654.484375 416.085938 C 654.023438 410.359375 656.882812 401.359375 664.773438 391.339844 C 665.417969 390.511719 665.925781 389.542969 665.878906 389.125 C 665.878906 388.710938 665.742188 388.480469 665.464844 388.480469 Z M 130.996094 395.171875 C 130.488281 395.359375 117.476562 400.757812 97.453125 409.160156 C 83.011719 415.207031 62.621094 423.886719 42.964844 432.195312 L 42.964844 440.367188 C 61.417969 432.519531 80.613281 424.394531 94.316406 418.625 C 113.601562 410.546875 126.566406 405.144531 128.691406 404.265625 L 130.996094 395.128906 Z M 1377.703125 441.429688 L 1363.492188 464.050781 L 1390.851562 479.882812 L 1405.0625 457.265625 Z M 1439.023438 469.359375 C 1431.179688 472.773438 1423.195312 476.238281 1415.8125 479.515625 C 1403.449219 485.007812 1391.820312 490.226562 1381.578125 494.933594 C 1371.289062 499.6875 1362.339844 503.890625 1355.234375 507.445312 C 1351.679688 509.199219 1348.636719 510.8125 1346.097656 512.199219 C 1343.5625 513.585938 1341.578125 514.785156 1340.191406 515.707031 L 1340.191406 523.878906 C 1341.578125 522.910156 1343.5625 521.753906 1346.097656 520.371094 C 1348.636719 518.984375 1351.679688 517.371094 1355.234375 515.617188 C 1362.339844 512.0625 1371.289062 507.8125 1381.578125 503.105469 C 1391.867188 498.394531 1403.449219 493.179688 1415.8125 487.6875 C 1423.195312 484.410156 1431.222656 480.945312 1439.023438 477.53125 Z M 195.683594 494.011719 C 187.839844 497.425781 179.855469 500.890625 172.476562 504.167969 C 160.109375 509.660156 148.484375 514.875 138.238281 519.585938 C 127.953125 524.292969 119 528.542969 111.894531 532.097656 C 108.34375 533.851562 105.296875 535.464844 102.757812 536.851562 C 100.222656 538.234375 98.238281 539.4375 96.855469 540.359375 L 96.855469 548.53125 C 98.238281 547.5625 100.222656 546.40625 102.757812 545.023438 C 105.296875 543.636719 108.34375 542.019531 111.894531 540.265625 C 119 536.710938 127.953125 532.464844 138.238281 527.757812 C 148.527344 523.046875 160.109375 517.832031 172.476562 512.335938 C 179.855469 509.058594 187.886719 505.597656 195.683594 502.179688 Z M 195.683594 494.011719 " fill-opacity="1" fill-rule="nonzero"/></g></svg>